<svg xmlns="http://www.w3.org/2000/svg" width="1024" height="1024" viewBox="0 0 1024 1024">
  <defs>
    <linearGradient id="bg" x1="0" y1="0" x2="1" y2="1">
      <stop offset="0%" stop-color="#2F7AF8"/>
      <stop offset="100%" stop-color="#4DA8FF"/>
    </linearGradient>
    <filter id="shadow" x="-20%" y="-20%" width="140%" height="140%">
      <feDropShadow dx="0" dy="16" stdDeviation="20" flood-color="#0A2A66" flood-opacity="0.35"/>
    </filter>
  </defs>

  <rect x="84" y="84" width="856" height="856" rx="220" fill="url(#bg)" filter="url(#shadow)"/>

  <g transform="translate(248 196) scale(22)" fill="none" stroke="#ffffff" stroke-width="2.35" stroke-linecap="round" stroke-linejoin="round">
    <path d="M9 5h-2a2 2 0 0 0 -2 2v12a2 2 0 0 0 2 2h10a2 2 0 0 0 2 -2v-12a2 2 0 0 0 -2 -2h-2" />
    <path d="M9 5a2 2 0 0 1 2 -2h2a2 2 0 0 1 2 2a2 2 0 0 1 -2 2h-2a2 2 0 0 1 -2 -2" />
    <path d="M9 12h6" />
    <path d="M9 16h6" />
  </g>
</svg>
